<?xml version="1.0" standalone="no"?>
<!DOCTYPE svg PUBLIC "-//W3C//DTD SVG 20010904//EN"
 "http://www.w3.org/TR/2001/REC-SVG-20010904/DTD/svg10.dtd">
<svg version="1.0" xmlns="http://www.w3.org/2000/svg"
 width="1280.000000pt" height="1280.000000pt" viewBox="0 0 1280.000000 1280.000000"
 preserveAspectRatio="xMidYMid meet">

<g transform="translate(0.000000,1280.000000) scale(0.100000,-0.100000)"
fill="#000000" stroke="none">
<path d="M0 11246 l0 -1555 148 -77 c81 -42 194 -103 252 -134 58 -31 164 -87
235 -125 72 -37 157 -82 190 -100 33 -18 103 -55 155 -82 185 -98 406 -216
485 -258 44 -24 159 -84 255 -135 376 -199 667 -354 705 -375 22 -12 103 -55
180 -95 77 -40 205 -108 285 -150 80 -43 190 -101 245 -130 189 -100 186 -97
175 -125 -11 -30 -51 -9 400 -209 245 -108 324 -148 322 -159 -4 -22 62 -64
118 -76 196 -43 460 -65 1110 -91 269 -11 438 -22 655 -41 l120 -10 82 49
c148 90 335 153 507 172 49 6 139 17 200 24 343 43 767 81 1196 106 427 26
768 76 863 127 66 36 72 45 53 82 -9 16 -16 32 -16 34 0 3 105 51 233 107 127
56 261 116 297 132 36 17 94 41 128 55 67 27 80 41 64 70 -9 15 2 24 81 66
154 81 318 168 392 207 177 94 379 202 470 250 55 29 132 69 170 90 39 21 109
58 158 84 48 25 125 66 172 91 47 25 123 65 170 90 47 25 122 65 168 89 156
84 552 293 662 351 61 32 164 87 229 123 226 123 224 122 364 122 l122 0 0
1480 0 1480 -6400 0 -6400 0 0 -1554z"/>
<path d="M12645 6705 c-161 -61 -852 -323 -967 -366 -43 -16 -113 -42 -155
-58 -230 -86 -663 -251 -696 -264 l-37 -16 -71 140 c-62 125 -73 141 -92 136
-12 -2 -74 -23 -137 -46 -63 -24 -176 -64 -250 -91 -74 -27 -180 -65 -234 -84
-77 -28 -101 -34 -108 -24 -4 7 -33 61 -63 120 -31 59 -59 109 -64 113 -23 14
-343 -219 -725 -529 -139 -113 -146 -120 -130 -137 9 -10 33 -23 53 -30 84
-27 219 -84 254 -107 44 -30 84 -101 93 -166 14 -98 -51 -198 -153 -236 -64
-24 -109 -25 -222 -5 -98 18 -125 13 -118 -18 3 -12 11 -42 17 -67 14 -56 6
-102 -27 -158 -33 -58 -121 -102 -204 -102 -63 0 -87 -16 -71 -47 34 -66 13
-176 -44 -229 -48 -46 -109 -62 -264 -69 -74 -4 -140 -11 -147 -17 -7 -6 -10
-33 -7 -81 4 -62 2 -77 -18 -112 -41 -69 -77 -82 -304 -105 -359 -35 -607 -52
-684 -45 -41 3 -130 13 -196 20 -120 14 -187 11 -211 -8 -7 -5 -13 -25 -13
-44 0 -18 -12 -70 -26 -114 -59 -176 -191 -248 -346 -189 -67 26 -145 83 -166
122 -42 76 -41 76 -110 25 -90 -66 -159 -91 -258 -91 -73 -1 -85 2 -129 29
-64 39 -95 100 -102 200 -3 40 -9 78 -13 85 -5 8 -24 6 -68 -9 -72 -24 -119
-26 -183 -7 -132 40 -213 122 -245 247 -23 90 -26 92 -84 63 -54 -27 -123 -32
-173 -10 -18 7 -54 37 -80 66 -65 73 -78 122 -71 269 7 143 14 165 65 218 l40
42 -38 34 c-21 19 -101 77 -178 128 -116 78 -467 322 -638 444 -330 236 -581
406 -621 421 -18 7 -24 -3 -101 -151 -38 -71 -69 -132 -71 -134 -2 -2 -36 8
-76 22 -115 41 -289 103 -333 120 -22 9 -105 39 -184 68 -169 60 -145 71 -228
-96 -30 -60 -58 -114 -63 -119 -8 -8 -196 58 -495 174 -87 34 -399 152 -635
240 -41 15 -160 60 -265 100 -104 40 -224 85 -265 100 -41 16 -171 65 -288
109 -118 45 -215 81 -218 81 -2 0 -4 -1453 -4 -3230 l0 -3230 6400 0 6400 0 0
3380 c0 1859 -3 3380 -7 3379 -5 0 -71 -24 -148 -54z"/>
</g>
</svg>
