<?xml version="1.0" standalone="no"?>
<!DOCTYPE svg PUBLIC "-//W3C//DTD SVG 20010904//EN" "http://www.w3.org/TR/2001/REC-SVG-20010904/DTD/svg10.dtd">
<svg version="1.0" xmlns="http://www.w3.org/2000/svg"
    width="159.000000pt" height="158.000000pt" viewBox="0 0 159.000000 158.000000"
    preserveAspectRatio="xMidYMid meet">

    <g transform="translate(0.000000,158.000000) scale(0.100000,-0.100000)"
        fill="#000000" stroke="none">
        <path
            d="M90 933 c-48 -41 -70 -85 -70 -140 0 -50 34 -116 76 -148 32 -25 42
-27 109 -23 119 6 163 52 164 174 1 58 -3 77 -21 104 -35 51 -73 68 -149 69
-61 1 -68 -1 -109 -36z" />
        <path
            d="M705 951 c-67 -41 -80 -66 -80 -149 0 -50 5 -86 15 -103 8 -15 32
-57 54 -94 35 -60 38 -71 34 -121 -4 -41 -13 -66 -41 -106 -56 -82 -70 -123
-65 -195 3 -53 9 -68 33 -94 74 -77 179 -84 268 -16 47 36 133 77 160 77 34 0
94 -26 147 -64 123 -87 224 -80 303 22 37 48 39 141 4 193 -38 57 -81 79 -154
79 -66 0 -66 0 -171 -68 -121 -78 -252 -43 -331 88 -24 40 -29 140 -8 177 6
12 32 54 56 94 42 69 43 74 38 135 -5 71 -35 122 -87 149 -42 21 -138 19 -175
-4z" />
        <path
            d="M139 380 c-46 -13 -78 -41 -99 -84 -46 -95 -10 -204 82 -252 35 -18
116 -18 161 1 57 24 81 67 85 155 3 65 1 79 -20 109 -43 64 -133 94 -209 71z" />
    </g>
</svg>